<svg width="40" height="1246" viewBox="0 0 40 1246" fill="none" xmlns="http://www.w3.org/2000/svg">
<path fill-rule="evenodd" clip-rule="evenodd" d="M22 39.9012C32.1066 38.8978 40 30.3707 40 20C40 8.9543 31.0457 0 20 0C8.9543 0 0 8.9543 0 20C0 30.3707 7.89335 38.8978 18 39.9012V638.099C7.89335 639.102 0 647.629 0 658C0 668.371 7.89335 676.898 18 677.901V1206.1C7.89335 1207.1 0 1215.63 0 1226C0 1237.05 8.9543 1246 20 1246C31.0457 1246 40 1237.05 40 1226C40 1215.63 32.1066 1207.1 22 1206.1V677.901C32.1066 676.898 40 668.371 40 658C40 647.629 32.1066 639.102 22 638.099V39.9012Z" fill="#4C7BF1"/>
</svg>
